<mxfile host="app.diagrams.net" agent="Mozilla/5.0 (Windows NT 10.0; Win64; x64) AppleWebKit/537.36 (KHTML, like Gecko) Chrome/128.0.0.0 Safari/537.36 Edg/128.0.0.0" version="24.7.14">
  <diagram name="第 1 页" id="zSN7iPEmiETjF4lOJNPj">
    <mxGraphModel dx="686" dy="407" grid="1" gridSize="10" guides="1" tooltips="1" connect="1" arrows="1" fold="1" page="1" pageScale="1" pageWidth="827" pageHeight="1169" math="0" shadow="0">
      <root>
        <mxCell id="0" />
        <mxCell id="1" parent="0" />
        <mxCell id="6Rw39WzhOwX6LZSCMEJf-5" value="中长波图像" style="text;html=1;align=center;verticalAlign=middle;whiteSpace=wrap;rounded=0;" vertex="1" parent="1">
          <mxGeometry x="21.850000000000023" y="80.04000000000002" width="76" height="30" as="geometry" />
        </mxCell>
        <mxCell id="6Rw39WzhOwX6LZSCMEJf-6" value="长波图像" style="text;html=1;align=center;verticalAlign=middle;whiteSpace=wrap;rounded=0;" vertex="1" parent="1">
          <mxGeometry x="125.33000000000001" y="80" width="76" height="30" as="geometry" />
        </mxCell>
        <mxCell id="6Rw39WzhOwX6LZSCMEJf-7" value="" style="shape=image;verticalLabelPosition=bottom;labelBackgroundColor=default;verticalAlign=top;aspect=fixed;imageAspect=0;image=data:image/png,iVBORw0KGgoAAAANSUhEUgAAASQAAADcCAIAAABWLUt7AAAgAElEQVR4AezB3Y5j6UFw4bXs7k4mEwYEJCgR4iS3gL4r2IZw51wAB8AoEpwRIOI3MMyUvb7olba0t2xXucp2dfXMPI/TNLGmAhWDynkV32oqQ8VMZaj4tlBZqLiayqziKSqzihdxABp4M5ymiUFloWKmMlMZKoaK7xiVWcW3gspCxXVUFiqeojJUHFErLqAyVNyOWvFSTtOkcgGVIw18x6gsVHwrqAwV11FZq7iCylDxTGrFgspQcRmVoeJF3O12XEytVGYNfJeoHKl4LSpDxRumslBxBRWouAWVWcUFVGYVz+dut+OMigWVmcpQARXfGQ6VClRAxQVUZhUvojJUDGrFG6OyUHEFFah4lFrxKJW1ikeprFU8k7vdjjMqFlTOqPgOUJmpFQsVF1AZKq6gVnxsKgsVg8qs4i1RmVVcQGWh4vnc7XZApbJQsaZyXsW3ncp5FRdQmVV84lQWKl6XClTcn8pQ8XzudjugAlSGijWVR1XcjspQcR8qQ8VlVM6reIrKWsUnTmWh4rWozCruT2WoeCZ3ux1QqQwVR1SeUnE1lYWKO1BZqLiYyhkVj1JZqPj0qSxUvBaVWcWtqUDFmlrxTO52O9YqFlSeUqlAxXVU1ipuTWWh4plUjlRcQK341KgMFQsqCxWvRWVW8RSVWcVTVIaKq7nb7VirWFA5pVIZKpWh4goqaxVXUIGKNZWh4vlUjlR8S6nMKo6oQMUb5sDQwKNUoGJQmVXM1IqnuNvtWKuYqRypGFROqbiCylrFS6lAxR2oLFTcmcpQ8SpUFio+TSqgMlRAxXkqM4cKqICK53C327FWMVNZqFhQOaPiCioLFW+Syqzi/lQWKu5J5UjFR6VWPJMKqMwaOE9lULfbrXoYKqDiOdztdkCl8qiKNQdmFVBxHZWFiguoQMWdqUDFoDJU3I0KqAwVQ8Ws2mw2FaAeDofNZsNQMajA4XBQeQ6VWcVTVKDiLVEBFaiAijPUCthsNtvtdrPZMOyHClArLuNut6sYVB5VqcxUZhVDxYJa8RwOQAVUPEVlVnEfKgsVoDKruAMVUJlVQMXCZrM5HA4M+/3+/fv3h8Nhs9lUgHoYNpsNM5Wh4lFqxXOoQMWCWvGRqKxVnKEybDab7Xa72WyAar/fHw6HBp7D3W5XMahcTGWhYqgYVBYqLqACKkMFVDxKZVZxBypHKkBlVnFrKqAya2BB3e/32+2WQa222+2HDx/+3//7f4fD4Z/+6Z9+9atf7fd7FahUFipuRK1UHlUxqAwVd6NypGJBZahUQN0MKlAdhgqouJi73a5icGCoeIpasVapHKm4gAqoDBVQ8SiVWcUdqBypGFSGiltTARWoGCoWqu12u9/vVYb379///Oc//8UvfrHf79+/f//w8LDf7//6r//64eGhUhnUiqHiFlRAZag4pWJQmVXcgspTKrUCVI6ogLrZbBiqw+FQMau4jLvdDqhUwAFoACoGlVMqZirnVVxABdQKqHiKyqziPlQWKmYqQ8UdqAwVp6gVcDgcPnz4sN/vf/SjH/35n//5drtl9vDw8M///M9/93d/t91u9/u9yqwCKm5BBRwaOKVipjJUXE3lURVrKmsqgwqoQDOGiou52+2YqYAKNAAVM5W1igWVC1Q8SmWouIwKVNyTyqxipjKr+Eg2m83hcKg+fPjwi1/84k/+5E/U7Xa73+9V4F//9V//9m//9ptvvtlsNswqoOJ2HBgqjlTcjcoZFWeoLKicUTFUXMzdbseCylABFQsqCxVrKo+quIAKVFxNBSpuRAUqFlQWKl6Xejgc1MPhsN1uP/vssz/90z/92c9+5rDZbL755hv1N7/5zd/8zd+8e/duv9+zUHFTKqBWHKl4e1QWVE6pmFVczN1uxykVz6dyRsXHoDKruAOVoVKBivtQgYo19eHhYbvdbjabw+Hw05/+9I/+6I+22+0f/uEfAg7/8i//8qtf/errr78+HA7cn8oZFW+SykxlVnFGpVY8xd1uVzFTK55PrVQeVfGKVGYVt6NWvBkqUAHqT3/60/fv33/++ec/+MEPfu/3fu8///M/qy+//PLrr78GKl6LyhkVL6VW3JrKxdQKqLiA0zRxaypQASoLFa9IZaHiDJWFikepFW9Gg7rZbIAf//jHP/jBD3784x9/+PDh3bt3+/3+yy+/rPb7/WazUStekcqRirdH5fkqnuI0TdyTyqziOipQcRmVhYo1lfMqFlSGSq24D7XiFJWFitnhcNhut+pm+PDhw2efffbhw4df//rXh8MBOBwOasVHorJWcQtqxe2oPEfFo/yd3W5X8YlQGSouoLJWsaByRgWoFaACasVQMahAxY2oFaeoLFSsqZvNRt1ut8DXX3+tVvv9frPZHA6H7XYLVLw6lbWKq6kMFS+iAhXnqZxXcZ4KuNvtGCpuTa04RWWouJjKUHEBlbWKBZXzKpWZylBxpOL+VBYqhmqz2VTOgMPhoFaHw2Gz2ez3++12u9/vt9ttxatTOVJxHZWh4vlUZhVnqKxVDGrFeSrgX/zFXwAVC5VacbFK5WIqs4oLqMwqLqBypGJB5TIqQ8UpFfekslYxU6vNZlOpFcPDw8O7d+8YDoeDQ8WrUzmv4vlUZhXPpLJQcYbKQsXFVMBf/vKXzThScR8qs4oLqMwqLqBypOIMlYWKQeUCFS+iMqs4Q2WtYk2tGNSKoQKqDx8+fP3115vNhlek8pSK51MZKp5PBVSggTNUZhXPoQL+1V/9VXU4HCpOqbgDlVnFBVSGisuoHKl4JpULVLyIykLFEZUjFYNaqYfDQd1sNofDgTW1Uitei8rFKp5PBSqez4GhAiq1Yk1lVvEcKuAvf/nLZpxXcUQFKp5PZai4jMqs4jIOQAVUvIjKUypeRGVWcZ7KrOLNU7lYxatzABoAteKm/J2//Mu/bAaonFJxRGWoeCYVqHgOlaHiMg5ABVQ8n8pTKq6gAhWPUoGKT4TKxSpencqs4j78nd1uB1TMVE6pWFBZqLg/laHiMioLFc+n8pSKT5BacWcqT6n4SFSg4p6cpolTVNYqFlQWKu5PZVZxAZVZxYuoPKriE6QyVLwKlVMqnk9lqHjznKaJU1TWKhZUFioW1IpbU5lVXEYFKr43U1mreC0qs4qXUhkqPiq14lFO08QpKmsVCyoLFYPKKRUXUFmrmKnMKr73UiprFZ8alVnFx6MCFec5TROnqCxUHFEZKmYq51U8SmWtYqYyq/jec6g8quLToXKk4mNQgYrznKaJIyprFUdUoGKm8pSK81TWKmYqCxXfu4zKUyo+ESrnVTyHClS8lFrxKKdpYk1lreIpKherOEPllIpBBSq+dwGVi1V8ClQuU/FmOE0TayoLFRdQuUzFeSqnVHyHqQwVz6RynloxqwCVWcU9qUDFZVTWKkBlplZAxcVUoOI+nKaJNRWoVKDiPJXnqHiKypGKF1EZKkCt+I5ROUVlqDij4j5UZhUXUFmrWFABFaiAisuoDBV34DRNHFErTlGBClCZqQwVCxXPp7JW8XwqZ1R8l6gcURkqzqi4A5WFiguoLFSsqYAKVEDFBVRmFTelAk7TxMVUhoqZyhkVL6KyVnGKClSconJGxadGrXgRlTWVoeKMivtQWai4gMpQcYoKqEAFVFxAZVZxUyrgNE1cRmWhYlA5peKlVNYqTlErzlM5o+LbQq14lMqCylBxSsU9qcwqLqMCFaeonFKpLFSsqQwVt6MyOE0TF1AZVKDiKRUvpTKruB2VoeJbRK14igqoDBVDBagVr0sFKm5B5TIVaypQcWsq4G63Y63iiAqoDBVQMVNZq3gplVnF7agV3zoqULGmVsxUQGWogIrzVKDizVO5WMVrUQGnaQJUhopTHJg1MFMrlYWK731sasVMZVCBCqhYU1mrePNUzlArFipekb8zTZPKrOIMFVAroOKIylDxvedQGSruSWWh4hSVQQUqhoq3R+UylVpxRGVQK6DidpymSWVWcZ7KrOIUFaj43sVUFio+NhVQWaiAijdGZa1iUJlVnKECKqA2MFTcgrvdjoWKK6isVbwiteLNUBkqzlNZqDiiMlQ8nwpUXEZlUJlVDBVvicpCxWVUZs6Aw+EAVEDFLbjb7YCK89SKC6isVbwWFah4G1RmFeeprFWsqQwVz6QyVAxqxaNUzqt4S1RmFRdQGVRAZdYAVNyIu92u4lEqUPEUlYWKV6QyVLwBKkcqjqgcqVhQGSqeTwUqBrViUBkqjqhABagsVLwZKrOKp6gMKkcqoGJBrXgpp2niAmrFo1RABSqGiteiMlS8DSqnVJyislAxqMwqbkcF1AqoeJTKQsVrUZlVrKlAxWVUBpWFiqHippymiVPUioupgMqsAipei8pQ8caorFWcovKoihtRARWogIoLqAwVr0LlSMUpKkPFGSqPqrgpp2niFlwAWuAW1IozVIaKN0xlVnGKynkVN6IyqBVDxWVUoOK1qKxVXEdlreI+nKaJW3ABaIHzVKDiCiqzirdNZVZxhspaxe2onFJxGRWoeC0qoAIVQ8UVVBYq7sZpmrgFFXAAKqCBM1QWKi6gslCpzCrePJW1ijWVtYrbUVmreC0qs4rLqIDKUAEVd6Myq7iCvzNNEzfiwKyB81QWKp6icl7FJ0LlSMWCykLFTanMKl6RyqziMiqgMlRAxSkqQ8VLqcwqruM0TdyIylrFeSoLFU9ROa/i06FypGKmslDxbaEyq7iAyqAyVEDFKSpDxUupzCqu4zRN3IjKQsWjVBYqLqByRsWnQ+VIxYLKrOI7TGVQgYqh4hSVoeJtcLfbsVBxGRWoGFRmFZdRgYpnUjlS8UlRWatYUJlVfFepnFLx6XC327FQcQGVWQWoDBWvQmWtYk1lVvH2qCxULKgsVHwnqaxVzFSg4m1zt9uxUPEolVnFTGWoeEUqs4o1lVnF26NySgWoLFR8J6msVbw6teKl3O12LFQ8SmWoWFCBitelAhVrKmsVnxSVIxU3pTJUvFUqaxXPpLJQ8RQVqLgFd7sdCxULKlAxqAwVa2rF26BypOLToXJKxe2ozCreMJWFiudTmVU8SmVWcTV3ux0LFQsqUPGJUDmj4v5UoOI6KqdU3I7KrOJtU1moeCaVWcWjVGYV1/F3drsds4o1Faj4FKicV3EHKkcqbkHllIo1teI5VBYqrqAyq1RmFTeislBxMZW1ivNUZhVXc7fbMauAClABFah481SeUnFrKqdUXE1loVKBigWVWcVlVBYqXkrlvIobUVmruIzKQsVTVIaKq7nb7ZhVLKgMFZ8CladU3JTKKRVXUIGKNZWhAlTWKi6mMqt4KZUzKl5EBSoWVNYqPhHudjtmFYNaqcwqPgUqj6q4NZVBrRgqrqACFQsqF6i4jMqs4goqs4orqMwqFlTWKi6mMqt4XU7TxCkqs4pXtNlsqsPhsN1uD4cD0LDdboFKrdSK81TOqLgplbWKF1E5r+IUlVnFZVSGiqupQMVLqZxSASprFR+DyqziMk7TxBGVhYpXdDgcNsPhcKg2m416OBw2m83hcNhsNvv9frvdHg4HteIMlaECVGYVN6WyUPFSKudV3JTKUPGxqZxSASprFR+DyqziMk7TxJrKkYpXobKw3W6BarPZANXDw8N2uz0cDvv9frPZ8Ci1YqYyq7gdlVnFS6k8quKmVIaK51AZKm5E5UjFTGWo+EhU1ioGlaHiiNM0saAyqBWzite12WzU/X6/3W7/4A/+QP3JT37y61//+quvvvrf//1ftQIqnkkFKm5KBSpeROUCFTelMqu4mMpQcSMqaxULKkPFx6OyUAEqCxVrTtPEgsopFa+iUgF1M3zxxRc//elPf/SjH33xxRe//e1vv/rqqy+//PKrr75qUPnEqVys4qZUZhWXUVmouAWVtYojasXHozKrGFQWKtacpokFlSMVr0VlqLbb7RdffPHzn//8xz/+8Y9+9KPD4aB+8803//3f//3ll1/+9re/3Ww2FZ84FVCZVZxR8QaoLFTcjsqsUoGKN0NloVJZq1hzmiYWVBYqXpe63++3w4cPHz7//PM/+7M/+/zzz9X3798/PDwcDof//d///fu///vf/va333zzjcqnTGVQmVXMKt4elYWKm1I5UvE2qDyq4ojTNLGmMqt4dSqw3W5///d///PPP//Zz372/v37d+/eHQ6HzWbz8PDw1Vdf/eY3v/mHf/iHiuuoFU9RGSoGlVnFS6kMKkPFrOJNUlmouCmVIxVvg8p5Fac4TROnqAwVC2rFPambzebDhw+ff/75Z5999sd//Mc/+MEP3g0PDw//N/zjP/7jf/3Xfx0OB66gAhVPUSsWVBYqXkQFVGYVUHGKylDx8ajMKtZUoOJFVNYq3h6VoVJZqDjiNE2cogIVr0798OHDD3/4w/fv33/48OEnP/nJZrP58OFDdTgcHh4e/nnY7/dAxaNU1iquprJQcYpacZ7KoAIVQ8XbpjJULKjMKl5EZVZxBRWouDWVoVKZVZzibrerWFCZVbwudbPZfPbZZ5thu93+8Ic/fPfu3RdffKH+x3/8x//8z//8+7//+8PDA0PFo1SOVFxHZaFiQWWt4gyVtYpPlsp5FfekckrFHagVoDJUnOFutwMqZipHKl6FutlsfvjDH6rv37/fbDbVdrtVgX/7t397eHgA1IeHh+12W3GeykxlaOAKKgsVayprFeepzCo+ZSqgVqxV3JnKoyruQGWoOMPdbsesUjmj4goqUPGozQB8+PAB2O/37969+7//+7/D4QAcDgdArdSKmcqjVIYGrqAyqziislDxFJWh4lOmckrFPalcpuKmVBYqTnG323GZijUVqHiKyqziUZvNBthut8B+v99sNvv9nmGz2ez3+8PhALx///7h4UEFVC6gVkDFxVSGikGtOE9lVvHxqMwqXoXKUPEqVAaVUyoWKm5EZa3iFHe7HVereJTKkYpTHPb7/WazUb/55pt3794B+/0e2Gw26n6/d2CmMqhAxVABKgsVF1NZqHiKylDxUaksVHzrqMxUZiqzw+HAQsWNqKxVnOJut+OUikHlKRWPUjmvYqZWKlCpFVBtNpsKOBwOm82GNZVBBSqgYkEFKp5DZaHiAmrFx6ayUHEHlcp5asV9qAwqM5WFBmYVN6KyVnGKu92OIxVrKmdUPEXlURVXUxlUoIErqAwqUDGruCe14joqs4orqMwqbk1loeJiKqByRGWogIq1imdSKwaVQa2AijPc7XYMasVQcUTlSMVlVB5VcR2VhYrrqAwqQ8VaxVulMlS8lMpaxU2pHKl4isqgMlQMKmsVs4pbcGCogIoznKYJcKjUBs5QmVVcTOUpFVdQWaiASuX5VGYqCxVrFXejMlTMVBYqQK24EZUzKm5E5ZSKp6iAylDxlIobcWBWARVnOE0T4MDscDhwByprKkPFrOKlVIaKoVJ5DpUjDkADRyruQGVWMVNZqFSGiqeoQMV5Ks9U8Uwqp1RcwAGoeErF7TirgIqFijWnaQIcKhU4HA7cgcqaylCxUPExqJzhADRwSsWtqcwqZioLlcpQcZ7KQsUpKs9X8XwqCxVPUSsGlaHiiApU3JQzoAIqFirWnKYJUBlU4HA4cAcqaypDxULFq1N5lMpQcaTiAipQcTGVoeI8laHiDJUjFUdUnq/iVahABajMKmYqs4obURkcgAqoWKhYc5omQGWh4j5UzqvUio9BZaFiQWWh4vlUZhW3pjJUnKJypOKIykLFTGVQKxYqXoUKVAwqj6q4ERVQAbViqFirWHCaJga1UoGKu1E5UvGxqSxUrKlAxYuorFWcoVY8k8pQcYrKkYojKlBxigqoQMWs4kZUoOIUlaFiQWVWcWsqoHKkYq1iwd1uxykV96GyUPEdoAIqswqoOKJWPJ/KUHGGypGKBZWFijWVmVoxVNyCylrFgsrFKgaVoeKZVEBlUCtmFU9xmiZuSgUqzlMZKp5JBSo+KSoztWKouCkVqDhPZa1iUFmrOKIyqMwauJrKWsWayqMqjqgMFc/kwKAyVAwVT3GaJm5HZaHiplQWKj42laHiUSqPqriaylBxAbViUDlSASpQASozFVCbsaZWXExloeKIyqMqjqgsVFxMBVQGlaECKi7gNE3cjspCxU2pLFTcmQpUnKGyUHEBlSMVV1NZqLiYyjM5AM2YqcwqLqMCagVUHFF5VMURlbWKC6gMKkcqLuM0TdyOyqziDlSGivtQOaViTWWh4jIqp1Q8SmWoOEVloeJiKs+kMmtgUFmruIDKrOKIyoIKVMwqzlBZq7iAyqACFc/nNE3clApUfJpUrlBxGZUjFY9SmVXM1ApQWag4olYcUTlSASrnqQ3MVI5UXEAFKk5RWVCBilnFeSoLFUfUipnKKRULKudVTtPE9xZUrlBxGZUjFWeorFXM1IpBZahYUxkqjqgsVKypzCpmKlCxoLJWcR2VNRWoGCqeorJQASprFYMKVGrFc6gMldM08SlQK16FysXUilnFc6gsVJyhslYxUysGFag4ojJUHFErbkdlVnE1laFSWau4gMplKkCteBGVoXKaJo6oFW+JWjGoQMWtqVxMZVYxVCyoFY9yqICKMxyYVUDFBVTWKl6LyqziaiqnVGrFBVQuVnE1d7sdUHEjasWnSeU5VIYKqFhQgYpHqcwqzlABlaECKi6gslbxWlRmFTeislABasWgMlSsqTxHxdXc7XYMFVdTGSo+QSovVbGgMlQ8RWWoOEMFVKBiVvEUlYWKO1MrBpW1iltQmVWAWjGoDBULKpdRK4aK67jb7RgqrqYyVKypDBVvlcpLVcxUFiouoAIVp6icUvEUlVnF/akVg8qRiltQgYojKrNK5ZnUiqHiOu52O6BiUFmouAWVWcVTVI5U3JnKKRWDyikVCyoLFRdQGSpOUTlS8RSVWcXrUjlScTcqQ6VytYqrudvtgIpBZa3iaiqzikepnFFxTyprFWsqaxVrKgsVF1CBivNUFiouoLJQ8bpU1iruRuU6lcpQcQvudjugYqayVnE1Fah4lMqCWgFqBVTch8qRijWVhYpTVGYVH5XKWsXHoDJU3I0KqMwqnlJxT+52O4aKhc1mUzFUXEwFKl5EZaayUAEV96EyqwC14ojKrOI8teJjU1mr+BhUoOI+1Apw2Gw2zTiv4gJqxUu52+2AijWVhYo1Fai4AxVQWagYKu5GBSoepTKreNtUjlTM1IqPTQUqruOw3W6BFphVvDp3ux1QcUTlAhV3oAIqs4qh4m5UoOJbROVIxVuiMqu4gsNmswGaMVR8JE7TxBkql6m4A5UjFUfUiu88lVnFTOWUijWVoeK1qBypeD61Apw1ABUfldM0cZ7KgspQsVBxHyprFUdUoOK7TWVWMVM5pWKmcqTinlQeVfEcagWozCqeSQUqbsdpmjhDBVSg4oyKW6tUQGWt4ogKVHy3qcwqFlSOVMxUjlTck8qjKp5DrRhUoOL5VBYqruY0TZyh8qiK+6hUQGWt4oha8Z2nMqs4RWWtAlROqbgPleeoeC0qCxVXc5omzlCZVXwMKgsV37sRlQtU3I3Ko9SKWcWrUFmruI7TNHGKylDx8agsVHzvRlQuUHFnKmeoDBVDxXmVyhGVIxXnqSxUXMdpmlSgYqYyq/jet5TKKRWXUSvuQAWcNQMqLqZySsVTVNYqXsrdbsd5Fd9GasV3nspaxXOoDBVXU4FKZdhsNg7V4XCogIqLqZxXcZ7KQsUV3O12nFHx6VMZKkBlVnEjKkPFp0NlreKIWnGKykLFjajAdrtVGQ6HQzMuoPKUivNUFiouoDJULDhNE6AyVHy7qMwqlYWK66gsVHxq1IoXUVmouBEVUDebDcPhcAAauIDKUyrOU1mouIDKULHgNE2AyqziW0TlvIorqKxVvAq14mNTWah4EZWhAlRmDhVQARVPUXlKxaNUFiouo1asOU0Tg8rQ/28PbnqjORMCit7b/khCNAy7EQv+TTn/f8FsWCAEaySkUcKg2H2JHqmkKnWX3W13++NNzikWVKDia1LZUPE2KmsV16cyVLwLteIYlVnFq6gMFYPKoDJUQMVLVI6pALXiBCqzirdxmiZmKlAxU5lVfFkqQwWoFW+jcqBim8qs4hNTOVBxHSpQsaCyUHEClWMqzqQyq3gDfzNNE6CyUDGozCq+MhWouBCVAxXbVGYVn5jKMRVXoDJUzFRmFadROVDxKmrF26iA0zQBKqBWQMWgAhWDClR8NWrFRamAWjGr2KayVrGgMqvYoAIVCypQASpQ8SoqMxWoGCquQGWtAlQWKp6lcqDiotSK06gMTtOkMqhABVSsqcwqvoJK5TpUQAUqFiqOUVmr1IpBZVZxQK04Rq0YVKDifCqDyqxiVnFpKi+peInKWsWlqRUnUJk5TROgslaxprJQ8fumAipQsVBxjMpapQIVoLJQsaZWzFSGSgUqQAUqzqcyqMwqZhXXofKsim0qByouTQUqDqgc42+maWJQGSoOqByo+B1T2VZxQGWtUtlQsUEF1IoDFW+gMqgMFQsVV6BysooFlQMVV6AyVKypbHCaJk6gMqgVs4rfMZVtFWsqa5XKhoo1lZkKVMxUoAIq3kBlW8UVqJypAlQOVFyHylCxprLBh4eHipeogApUzCp+x1SgAlSOqVhQGSoGlQ0VayozlUGtWKgYKs6n8qyKK1A5X6WyVnEdKrOKNZUNTtPES1QGFaiYVfxhpnKg4lkqGyoWVGa7GcN+qBgqhopXUXlWxXWonKxipjJUXI3KULGmslYxc5qmikFlTWVBBSpmFX+YqRyoeJbKhooFlUG9vb29u7vb7XYNv/76a/X09MTQwNuobKv4CCoLFQsqUHFNasUBlbWKmdM08SyVbRXvSwUq3kZlqDhGBSrOoXJMBahAxUzlmIpBrRhUQL25ubm/v//+++9vbm72w9///vfHx8enp6cKaOBVVF5S8aFUhooFlYWKd6SyVjFzmmM4vLkAABMcSURBVCaepbKt4spUoOJCVGYVF6VyTMUxKsdUHFCB3W53c3Nzf3///fff39zcVE9PT3//+98fHx+fnp72+30DoFacSWWDClRAxcdRgYo1lQMV70VlrWJwmiaepbKt4jpUDlS8jcpaxRWoQMWgMlTMVNYqtqnAzc3Nbre7v7//4Ycfbm9v98PPP//8NKsY1IozqWxQGRr4lFQOVLwLlQ1O08SzVDZUXI7KCSreQGWt4vpUZhWDykLFs1Tg5uZGvbu7u7+/v7u7q56enn755Zf9DKh4LZUNKkMDn5LKWsW7UNnmNE0qQ8UxKgcqLkflNBVvpvKsiktTmVUMKkPFS1Rgt9s53N7e7nY7YL/fPz09Vfv9vhmvonKOis9EZVArhop3obLNh4cH1iqOUZlVXILKq1S8mcq2iktTGSrOpwIOwG63UyuGar/fNzCoFWdSOVnFZ6KyVvGOVDb48PDAWsV7UTmmYk1lreJCVI6peC0VqFhQgYpXUavdbsegMqjNgIq3UYGKBZUDFWsqUPFBVNYq3p3Kmg8PD6xVvBcVUCtmFceoLFRcjsqBildRmVVciFqpLFQqx1RclMpaxYLKUPFxVNYqPpoPDw8sVLwXlQMVG1TWKi5HZa3iVVRmFWdSK45ROUHFdagsVJxDZVZxHSprFR/Nh4cH1ireQAUqTqCyVrFNZVZxaSqzitdSmVWcQGWh4hwqCxVXowIV51OZVVyNykLFR/Ph4YG1itdSWavYprJQ8SyVWcUVqEDFG6jMKl6islZxDpWFijWVoeIjqKxVXJPKgYoP4k8//QRUDBVvoLJWsU1lVvESlbWKr09lreIcKmsVCypDxbtTOVBxZSoHKj6CP/30E1ABFYNa8Voqs4ptKrOKl6gsVBxQgYovRWWt4hwqaxUzlaHiHakcU/EuVNYqPoI//fRTBVTM1IrrU5lVXIIKVHxKasUxKmsVJ1MBFaiAipnKUHE5asWayrMq3pfKUPFBfHh4YFbxvlRmFZegAhUfR2VWASprFQdU1ipOowIqUAEVV6ZWrKlsqPhd8jcPDw8sVLwjlVnFNpWFig0qUPFBVNYqlbWKAyprFQsqQ8UBB6ACKq5MrVhTOVDxO+ZvpmlSGSqVoeK9qMwqDqgMFQtqxZrKUHF9asWgcrKKNZWZWgEVg8pCxQGVWcXHUVmo+H3zN9M0qRyoeAO14jQqs4pjVKDiJSpDxfWpQKVyjooFlQMVM5VZxQGVhYqPo7JQcRoVqDiBClR8ev5mmiaVk1WcQAUqTqAyqzhGrTiBylBxZSqvVbGgcqBipgIVoAIVM5W1ihOoQMVFqQwVJ1OZVWxQK5WFik/M30zTpHKyihOoFadRWah4AxWouD4VUCsWKtZUFirWVA5UHFBZq1TWKl6iMqt4A7XiDVTWKtZUFlSgAio+MX8zTZPKySouTWWt4g3UiutTGdSKoeKAyqzigMoxFQdUZhULasUJVNYqPo7KWsWayqAyq4CKT8zfTNOkcoKK61A5UHEhKlABKkPF26jMVKBiqFhTGSqOUdlQcQUqaxUfROVAxYLKTGWogIrPzd9M0wSoFYPKQsX1qaxVXILKhoo3UBkcgAagYk1lqDhGZVvFFajMKj6OylrFAZUDFW+mMlRcgb+ZpolPQOVAxZupbKt4LZVB3e12QLXf7xkqZiqzimNUZpXKtooFteJ8KrOKN6gAlVdRmVU8S624KJVZxaX5m2maeC+VyjEqx1Scr1KZqRxT8Voqs90A7Pf7ZgwqUKkV21RmFYPKsyq+MpVBrYCKD6IyVFyav5mmiU9DZa3iBGrFgloBKsdUvIHKTN3tdkALDCqzim0qQ8VM5VkVX5nKQsXHURkqrsBpmvhMVBYqXuIAVEAFqGyrOIfKNnW32wHNgEplrWKbClQsqDyr4mtSWav4OCpQsU1lqDiT0zTxvlRmFQdUZhXPcgY0ABWDCqhAxaziZCrPUgG1AiqgUlmr2KYCFQsqJ6jYpgIVn4nKWsVnpbJWcQ6naeIdqSxUHFAZKl7isNvtmgEVoDKoQAVUnEnlBCpQMVSAykLFNhWoWFO5qIrrUBkqXqKyUPGJqaxVnMNpmniWylDxNiprFQdUhoqXODCr2FZxPpUzVaypQMWaWvESlROoFS+puA6VoeIEKrOKT09lqDiT0zSxTWWh4rVUFio2qAwVJ1BZq1TWKhZUhoqXqByoGFRmFedQK06gsqFSOaZiUCteogIVa2rFs1RmFSdQmVV8BJWhYlArLs1pmtimslbxKioLFdtUoOI6VBYqnqUyqwC1Yk2tOIdacRqVtYoFFah4LZVZxUxlVnFAZaHiBCqzio+gMqtUoOLSnKaJbSprFWdSWavYpjJUXIfKQsVLVBYq3kZloeJDqSxUzFTWKt5MZa3iI6isVZxDrXiW0zSxTWWtYlArTqMyq3iJClRch8pCxUtU1ipeS+VAxUdTgYoFlQMVb6ByoOIjqKxVnEMFKrY5TRPbVF5ScWkqUHEdKrOKE6gcU3EmlWMqZmrFu1Mr1lSOqXgtlbWKD6KyVnEClbVKBSrWnKaJZ6mcoOLrUJlVnEDlmIozqQwqUAEVCypDxWeiMqt4FZW1iq9GZVvFmtM0cQKVl1R8ESpDxWlUjqk4kwqoDBVQMVNZqLgateJkKrOKV1FZq/hSVJ5VseY0TZxDZVvFF6ECFSdQ2VBxJpVBBSqeVXEdKrOK06hAxWuprFV8KSrPqlhzmibOpLKt4tuickzFq6hsqwCVoeJqVGYV70VlreLrUFmrGFSGijWnaeIYFag4RmVDxTdE5ZiKN1BZq1hQgYprUlmouD6VQa0YKr4OlbWKQWWoWHOaJo5RmVWsqRxT8W1RWav4VqjMKt6FCqgMFVBxISpDxdWoLFS8xGmaOEZloWJB5ZiKQa34+lTWKv7wBiqgAhVQcTK1YpvKUHEdKmsV21TAaZo4RmWhYkHlQMWgsqHic1AZKraprFX84Q1UQAUqoOIEKmsVB1SGiutQWavYoDI4TRPHqIBaMVTMVBYqFlQ2VHwCKgsVG1QWKv7wNioLFadxYNbAAZWhYk1lVvFaKgsVG1RmTtPEMSqgAhVQsaAyq1hQmVWAylBxHSpQcQKVhYqLUhkq/rCmslBxAgcWKqBiTWVWMagcU3E+lYWKDSozp2liTWWmVkDFmspaBajMKmYqUHEFKrOKE6gMFZemMqv45qgMFa+iVpzMgYUKqFhTmVUMKsdUnE9lVnFA5YDTNLGmslZxQGVbxZoKVFyBykLFx1FZqPiGqCxUvAuVQQUqoOIYlVmlsqHiolQOVIDTNLGmAmrFUDGrVAaVDRVrKkPFpamsVXwQlYWKb4jKQsV7UVmo2KBymorLUTmmApymiQWVtYptKgcq1lRmFedTK45RWav4OCoLFd8KlbWKd6QyVCyoDBUzlZdUXI7KWsXMaZpYU5lVPEvlQMWCykLF+dSKmVoxqKxVfBCVtYpvhcpaxftSgYpBZaFipvKSigMqUHE+lYWKmdM0cUCtOIHKgYqZyoGKN1B5VsVHUNlQqcwqviCVhYoLUTmmYkHlWRULKi+pWFBZqHgzFXCaJt5A5UAFqGyreBWVZ1VcgcpCxZrKOSpOoAIVn4NacWkqx1QsqDyrYkHlBBUzlbWKN1AZnKaJA2rFCVTWKkDlWRXHqByomKksVIAKVFyHylrFgsqZKk6gAhXfNJVjKhZUnlWxpvKSipnKWsVrqcycpok1Fag4gcpCxaDyrIoNKieruDKVAxULKueo+IaoDBWvonJMxYLKsyqOUVmoGNSKmcoxFWdSWXOaJtZUhooTqMwqBrUCVI6p2KZymorrU1mrWFB5VsW3SGWt4srUiitQOabiHCoLFeA0TaypzCpeojKrWFM5puJZKgtqxVrFe1EZKg6oPKviU1KBildRWav4ylQOVJxDZaECnKaJNZW1imeprFUMagWozCqepfKSiveiMqs4oDJUfGJqxaCyVnEylWMqPh+1YqhU1lQOVLyKylAxc5om1lTWKp6lslBxjApUnEDlWRWfhspQ8YmpFYMKqEDFUHEalQMVX5PKgYrLcZom1lQOVGxQmVUsqBUzteJkKhsq/nAmlaFSGVQWKs6hVkDFMSpQ8fmobKs4oLJWcRqnaeIYlaFig8paxUwFKl5L5ZiKP7yKClQqg8pCxfkqNqgMFZ+DyksqjlFZqziN0zRxPpUDFQsqaxUnU1mruDKVoeKbprKgMlScr2KDylDxCaicpuIYlVnFyXx4eGCh4gQqaxUbVIaK06isVVyZyqziW6dymkrlmIpnqQwVn4DKOSouxIeHB9YqXqKyUPEsteJkKmsVV6ayUHEJKlDxialsqHgtlVnF56BysooL8eHhgQMVz1KZVVyaykLF9aksVLyZylDxEdSK06isVbyBykLF56ByTMWgMqu4BB8eHjhQ8XFUFiquT2Wt4s1UFirWVKAC1ApQK7Vht9s17Ha7Ctjtdvv9nlmlcgkqCxWvorJW8V5UZhUvUSsWVNYqTqMyVCz48PDAgYoPorJQ8S5U1iouQWVWcUBlVgFqpVa73W6/39/d3e0Hdb/fA5XKsNvt9vs9l6CyUPEqKmsV70VlVvGOVBYqZk7TpLJQ8RFUFirehcqBistRgYpjVKBSgcrh8fHx9vZWvb293e/39/f3//d//1ft93sVeHp62u121dPT083NDRelVryByqziHaksVLwXlYWKmdM0MahAxUdQWat4FyoHKt6LWjGozNTdbqf+4z/+483Nzb/8y788PT39+7//+88///z09ASo1dPT093d3X6/51ukMqs4jcpCxfWpHFMxOE0Tn4DKWsW7UDlQ8S5UoAJUFna73f39/Y8//vjnP//5n//5n4Hdbvfrr7/+9a9//eWXXx4fH3e73X6/55umslBxApWFiktQKzaoHFMxOE0Tn4PKrOK9qByoeHdqBai3t7d3d3c//vjjn/70p7/85S+3t7d3d3dPT0/A3/72t7/+9a+//vrrfr9XgYoPpTKruByVhYoTqMwq3oXKgYqZ0zTxh89BrdTb29vvhru7u7/85S9//vOfVYZqv9//93//97/927/t93ugUis+jsqs4nJUZhWnURkq3ovKgYqZ0zTxh4+jVizc3t7e39/f3Nz88MMP33///T/90z/96U9/Uu/u7p6enoBffvnlf/7nf/7jP/5jP/AJqMwqPgEVqHgVtWJBBSo2qByomDlNE1+HyqziJSqzik9MrdS7u7v7+3v1u+Ef/uEffhx2u131v//7v09PT//6r/8KPD4+ch0qs4qXqGyr2KCyVvFmKrOK61M5pmLmNE18HSqzClArtqlAxeemVurtsNvt7u7ubm9vv/vuux+Gm5sb4Oeff/7P//zPx8dH4OnpSW1QuRyVWcVLVBYqlYWKY1TWKt5MZaHiQlSgYk1lUCsWKganaeKjqcwqtqkcU6kMFV+NClQOu93uu+++q9S7u7sff/zxu+++2+12+/3+v/7rv56enoCG/X5/c3NTcVEqs4pnqYBaARWgcqBSKxZUFiqOUYGK06isVbyZyqxipgIqs4qhYnCaJj6UylrFNpVnVUCl8kWoFYMKqJVa7Xa7Sq0eHx/v7+8fHx/VSt3v9yoXpTKreJYDUAEVoPKsigUVqDhGZVZxApUDFW+jMlQsqIAD0MCsApymiY+jckzFBpVnVUCl8hWoFQuVCux2u0p9enra7XbAbrd7fHxUARXY7/cqF6Uyq3iWA1ABFaDyrIoFFag4RmVWsU1lW8XbqEDFmgqogNrAUDE4TRMfRGVbxQaVbRXfhP1+D6g3NzcVUO33+7u7u6enp/1+f3Nzs9/vHSouR2VW8SwVUCugYlDZUHEmFah4lsq2iqtRGdQKqNSKwWma+DgqGyq2qaypQAVUfH0qQ8Xg8Pj4qN7c3Oz3e7Xi0lRmFS9RWagYVBYqrkxlpgIVx1Rcmspaxcxpmvg4KhsqXqIyUxka+JoqlVm12+0qtWJQK2ZqxUWpzCpeorJQMajMKq5PZVAZKjZUXIJaqRyomDlNEx9NZUPFBpWZylABFd8ElaHiHanMKk6jMqsAlVnFaVRmFSdQWVBZqNhQMVNZqDiTylrF4G+maeITUDmmYpvKTAUqoOKLU1mo+PRUZhWvpTKreInKmsqsYlvFoLKh4jQqByoGp2nic1DZUDGoFWsqByqOURkqBpVZxUdTWav4ClRmFa+lMqt4icqrVMxUNlScRmVQGRoYnKaJz0dlW8WaylrFMSpDxaCyUPFxVA5U/G6oLFQ8S+VVKhacMez3e2YVL1FZUBkqoAKcponPSuWYigMqCxXHqEDFgsqs4uOoHFPx+6CyULFN5TSVykLFTAV2g8Pj42MDQ8VLVDZUgNM08YmpLKgVULGmslBxjFpxQAUqPpTKhorfAZWFim0qp6kAlVnFoDLsdrubm5vdbqc+Pj7uB2YVJ1BZqxicpolLUIGKi1IZVGYVULGgMlR8MmrFaVQ2VHzTVNYqtqm8pOIYFagcKvXm5ma32wFPT0/7/b5iqDiHyqxi+H/1giXxcltDfAAAAABJRU5ErkJggg==;" vertex="1" parent="1">
          <mxGeometry x="20" y="20" width="79.69" height="60.04" as="geometry" />
        </mxCell>
        <mxCell id="6Rw39WzhOwX6LZSCMEJf-8" value="" style="shape=image;verticalLabelPosition=bottom;labelBackgroundColor=default;verticalAlign=top;aspect=fixed;imageAspect=0;image=data:image/png,iVBORw0KGgoAAAANSUhEUgAAASQAAADcCAYAAADZT9wsAAAAAXNSR0IArs4c6QAAIABJREFUeF7tXVmvZWXR3i30QDfQIIOiePNpIolRvNDES/0pJl4iLUb/i/9CvTHGIXKlJt6ZSIiRC4kxakQEZOgB+VIL6linTg1PvcNaa5/uTjrnnL3eocannnrX2ntf+Pa3v/3Bwfh34cKF5dUPPvjfZX6Nf8ppcpz83Vr73mv/s4C0pbZbdO1ut2EWg6Pto/erxrg138qtFrlp7Y997GMn+frf//73zDK8l2W3lj1nzbkgAQlxsgYlK2lI+arDZil4TOvqAO1NgmPSvSorEqvVNb3xI/by8kSvTX9XcofGakDS80cBn7ZPVVbEHwsgWUbhyZZxaLzFlngsIXTFqIig53WMrFwWIOlAvmdXjF2Oihcvzmf4oYURMyB5XQ7LKce17GOBUYQRrfa/8Pzzz59q2ZBqIJ2kFWV2ZNHGViHP4zyrPZOvEQX3fDEjGXpsPCLAe/afPVeD0qwOgPeZ4V8PkMh2LfvNYu8pIHnGlwJJxsQKznLa7OBbY32PdWpAIlCSgcQ23VMAkb08QJpB6dfwj8cGJGCwL0aeybQAEmpjjiNP3kpMjVjDbY81Q5IBJuleRNn42r32Ik8XixnJWRbQW+COJsRoqh5piCZHbqW+Ebr11atFbEEzhllMINIwasP6LHO6ePSwo1m5fsKQPCN4yOmhpEb5CvL2GvuY5rNdovO7qBVCAckDu9ZgPAYbZ4AU2WRru0SytzAo1nUGyM1o1U8BUkS/MyduzZJmGKeafCNksADKAvUq0M+k2VU7zRzvtcMyMXWsRmd1I1syRG+PQfcyNa8AIjJlrNiybcu6C2hyy6YRNAr4zEmauleTp6KMF0yVNUaMHS1HxECjVtrTZbR8VhuEFq0R9vbWyBi9xUDYNjJuWxjoCL1mAZIlW4U1Zeyst10/AUzrDMmjrVZQR4JIhWeB0l4q/6yE12dKshq12LQ3cFAgyIrWiORFZCE5MubqAdJMGVHZrc7Dy0+EybD/UcDlHPZsWAG1SL4pgGSxrCwYep2+JiAhVWIUfbUCUduyBZB67Y0EFY3ZEpAipoYw/73ZdYTPyB/8NDethz4rqAEpOuOy2B1qyzIgRQEWCamTGBWw4oS1QCkDpIrM1bFWpZ9hyxa5RoNwVQZrfMRYs7ZuxP57WoNjh38yO+KfiKyaqfNzcvy8If/sickF/NCWDW1JJP2VikpBe4T2jIfKhxh/j2N0WzHDhi1679HuWibZpmq7bQ1OUcszqr3WgMQtH+2NPsAs44/A6P77718Y1507d5Y1mHH1xqV5qI0YwtvYesJYInJL0GdzRrGHLRmQ1tGSZXb7m9lZtpGRzXXxob/vu+++kyeCOZDpNdbp/fffP/N2JHpNthmofK0tm8X0pR9O2grxxnPtp720qlY8SZ+xLgggSTwgn126dGkBJAa227dvH+g/r4Xgh0ssiCFFLVd2ZqCpnHYIr+3Rwx7hZYLIdztXqKhcw2N0LYnQOidiHJ5tW/dqmWfRf1lxLQZCwUvgIgP46tWrS3WlaxzI5EMObAp8D1gqVbgSXxpwdGxY+1bWb7H3qDm6gPC6KCDxePLXxYsXTwCJ5pPPmCnpYlQF6IUhaUCqVGINSNqAEhwy4KsEmlWtOThaGNlekt1LAi9ZWmzWE+Qc2JK5sL2t4KbxDDy8L4ENjaXgfvDBBw/f+ta3FsD6/e9/f3jxxRcPt27dOvVxGrJdkAWuRw9rrm6fOJ4sZuHt7cX42n6ywNzKaw9keT7bhG1AviO/ccEgv5F/6eeIcyQTkDjYSAhkEw1KXtBoh1vgVQ0yq2JXAEkaXDOkTN6qrNl4mXgyIJhZaLDSr2frj7gu7S3391gpxQ9VVKqi/N48mvfAAw8cvvzlLx++8Y1vLAF95cqVw82bN5dxP/jBDw7vvffeEnsyFiUbaWHBVf3ZH3wMgcRVVHRng1KVjXB8e8XOK/qy1SYfMRhpdlS1N40/c4ZESslzIHlYFRlbo682vmUsfq1XEZkkSNBYhtoDQ1oc8tH5hLRNZMvZQZ7ZKttfgggBz7Vr1xYG9PGPf/zwzW9+czmPkP8IlP7whz8cfvazny2VmOZYvlkTkDgBac/sdvlWvqqAkeczvYaORckUZXzyobYuol2AxJMZjHhDDUiSNaDMSCaa/l2zkujvSEE2Vk+gegBZcXaLE/ScDByz6yNkQNfIqiuzKAYXGk/nR1//+tcPX/ziFxewIQYlgeePf/zj4Sc/+cnCkvRZkiw4azBYWaCzYpeBM2rTlnFIjCLy6ZzmfI3WlznXk3+nGJKmZ/x31LJZQmbo6ynWypI4KC0waXFsBnqyTRm9vlwv0qdi95kyImvzHTX6SdSewOf69euHr3zlK0vLxgWQAOudd95Z/n7llVcOP/zhDw+XL19eWjhdpJDEQmRDAM1i39baWiYEqBEZ1x6DAJKnK+dGj3/c55DYENXFvbZO0j2PBUV7RVR4LadtyUw08LLz1wDiHpAm+ahF47szBDDPPPPM4bOf/ewCOP/3f/+3LE/jiA29/PLLh1/96leHt99+22zXen3dEkeSfXtFI0pSLTPCZnr17JlvtWrsI8kSI3LB8VrFjzOH2nLjHqUk4/LaPE/YqhIVOVsrlwTUXloqWVYWnHR9pj0qtmsZK1t/tiEBEh1qP/HEE4eHHnro8NRTTx3++te/LuczP//5zxemRDrT35l9WmRqnYPIwr6KfIaso/OnVeaWeRZLQtfheG3JkQUnvG8dQQWojtMV/VjaDw1IElQQBuGxwsx+xw5IfOBJrRgfDhMQ0e3+J598cvlJd9iIRf3yl79c2jpiUTSWHw/IbLT29ew8BYmNCiitrR+TEvmzKgMCzNaaISAhPXYmqLcGC6yfxB3NBnSr07q+bjmjCoAGmyWLnNtKezOfoNcRMIwKCstPIMPPrpC/6RyJ7rbRWRIB0ksvvXTSnvHjAfKpX1TetcdFLUsGSmiMmEm7ImvO5MwIRSXflhzTD0bqSp4JlAXBCFDL9oiue2cv1TUtQPKCDrGZbB3l77yPBDzpVM0wq3pUxlcAScplgTXrRcBEv9PtfvpJZ0V84M3MiACMrrfQ/op+1bG63c8AidfPCk9FDl2wKnMRJo8CiNfW6fnZejI/lxi5cePGyZPa2eQW5bUT5RqVgM8qTiablejZHC2rFQw9wabBusLCZviqYg8e68ksKTu3XgQ8/J/m061+vsa/EyjxYwAEXnvRU8YfxwHSunmghBQtjx1FQNfqQ01EsnUQMEby+wwgvfDCCwsgWdWot2XgNT00zZSm61rxlgAdtYZXnXpACQE9Tga9f4stEJujY6zEtGKJn9Dm963pQKWHIfkBSbrGzyTJJ7tRmdYch4KKBGcJ5FVZR8Sx3jMrgjrGIjBuicczgPS9733vAz54jN5o17qZZYCKI0Y4oWcNaTAJkNIeiG2s4JXzdGBkNhrdzrTYSAanZQ9tFwkwdI3+5jtpUh/6ne7Cvfvuu2cejMzsssZ1FIg0k9H+rso6o13juOO1SUaJAyggITkQ6Xsix/e///1TgKSNVk087QSpaNWRMxhS1XCjAMlzRrZ+RI2ruiABIVuTaH20XWE2RD/540SoTaPfrfXld9Ed421/zXglO+oFJF0QOXaqwKZltN6rx2t7b5huKWBZ/C36oQxJLoYE6qhkGVEVPONVHUrr9H7MCeSUj97PFoGYBI6egPRaCNR/SGBaiYjEkNSxpZiNsItO3tY1UXu2rm/NQ+Pbeu8qg1/ExL3cbPXVwpK++93vLgxJUrVswWow9RhZMqwR62gGkOlqVRNeI3JWVVYpRybTyH2thKskD+ofXjMbbwFcZo+qrVvH98hRsWmrfK3zuF2Sca3X8lo3i6i02mmRg++yIRtmLMkSZC+OGMW09Dqj9Ks6cdS+rUG8xTxu/7bYu4cpzfCVBvhem2SFYi22mj6pHZ1haCPwWBk4M5zRYnyktcjWRSpJtoZ3vQJIe7Fpq64t80YUlJZ9szmZ30b5Ci2EmTyZPltf3wSQtqh0IwCJnIVUkq2dep72rxTELfUeFV9IwZIH5cj4re1SAeUpgOS1dhl6VwTnPdCAnR0wWzr92PZGD1tlAeDfkWQ8Nnsg8nrx6+VMlmvIniPGVAu4CUgyYKrnQhG1Ro1UAaZ7gDQibNZdIwIkz59WXFXiZF0Nx+4W5Y20wehzpRFalAHpueee+8Bytjwv0YIhd9miQ3KkZUODrRWQSCd0j1bGN8Kh53END5CixLtbAWlGEbdiqgocaFwiuS7Xcls2NNEzwVCDWusggJGtL9cYafQ9VqPMF63XLRu2rqXnZf7zWnOSif+ja4ySea11EL2sVg7JG0SHSmstCzwit7d/CZBaFG39eBF0r0x5dB3EQRZTzPZvWXePc7w2foR9ERsyY9dnSF5hGCFXjx96i19GCPi6/ClBulX2VrmjjqgiSwpIMhBlMKD0OjNsKzM6RfOCJ5t1AHsVFzGa19puHfyI7D1jZjIkxB/6+IATL9JpK5/IGKHfkS9iRFmjpZP8mihmKYh9XIYicqliw+mARAJb/Z+uSBpRLeRm5aXQHlC0Jk4EfJ5hkcqMJIylX6see5tn2a5it4o+3rr0uvWWHSs+t/SFjn2SZRQgWfnCQC0Bu4clWe0f6r9eQDqxXfUjbFHqbjlHB0sFgTPDtAISSlGRJBypT6bvHq5HgNAin2fj7L1Weq+t/DADkKwiLoukBKVehtQDSLw3E5mq/5sBSRtDgoxF7a0g66GUCNWUY7KWrZJU90Dpf3cmEVt4LDsKViup5V5Z7GwFRhaTbm3ZZFKjgGTFPIOEl4OWH7Stq8DSMl76PH0w0hOaF+GPi/ACZStAWiswt3Bgi9Nb51hniHKtDJgqgG9VfotVy2ODtfxctR/KvCvregW/hdlkxxhr2/WE6dFnaltGiQTSvavsW61e0jLYaIVbnFIJhoiZjdZlhFyz1rCSAmE8UQJ4McNxFsVXxpjPk2+07dk+HjuK/ILYRRajWfGkmeUJQ6pUehor+3oOGH2Ax9VRUjKvhZqt8L31+yxgBbCOmYwteWzbAiRuWyTTkMCk95J/y99bDpX7LDVvtgYIBJBkB9MCXNz2sT/maffhTbQFkFrYhbzdKAMlq1hSwTUReKYhz8vaWVGSrdJsnSvnHrrVk8kjjxIQVjBbr5b1td1lgef1EAbK+ZZ1P7IYILndopOLE62AZCFm5vAZffVIY9zNa7UAwBr2yoqWTFZ5lMDxKRm5BKc1ZJ+1h2ZGVtfRQjL0UQx3OPwBjpJMTNPNOkPKgKVFGI/Oz9irRT45hx3Ru85W8zOmY8klgxxpq1v2yOxRKVjRuZNXLBG9Mhn3cH3kEYhmW/o4Rn+a7Ox8Xb4osoJ8rcl6LIBUSYo9BKeWoaUyygTW/o1agaxdqNjHA7go3qwW0mpnpBznDZS0DzJGqQuvtJd3JsWgNBuMljiMvrnWq6QVAOM1qhW4Eswjx86o/CPly9bygD/zWXUe+zNqg6pnTlYx0ICE+kevZem3RoJl/kKvWwfaFtDq9TyAyoCI4yU6Q2olJ5HOJ3fZKsFTFYSDVwbJXisVkmhoEG01LgKXDJisdkfP0S2Dl9jy9UwmxFYyjloOW48BlFCGizD5KKc1IFlAxq+teacyBSQGH4QKWgEog0gae00aiAQ7j9HvmarM3eNYDwgydlABEASQPKBDbeYVtUyPiOUj4IzKN2JclaXKPTVzzIqBBCRLdjnfsjGCBy02OQNIvEglIC3HSoX1d7rLb8rNAqpXcZTNoa1Ai5H3MAetvFX/Z/4boTuDEYOa3LO1eiMMY4Ts1TWkrjzXaosrHU3YIjmflLGGXxk3ZGwugGRtXgUkCUqnNvjoIUr9ICWDEqr4zACqJms1yPYyvkXPVoY1Smevkve2/DPjqUd3iwlybulc6S3WHmtFc7JHT2/uBfoI24zW9mzMBvae7EaUl1WjJxCt5LKcisjUY5Mt51YBpjp+tG66uPX4f7RsXstkdQzo3vqIQ56Vrdk6aXlbihmqs2Tl0wGJNmMwklWJjIvSbU1jLQqbKY8yvvMMRrods9pZlC2vaScvGUYwhCxu0OujElYWcN47Om+VrVvLsQNqw1H6ZfY8A0ho4mYL6+phKYQG9T1AqljbHqvPHCyb8kztF49ZosHcL/3+VxiRsLI9Zf9UGFIrIOlChXRMaO5WPdf08SPlTYyDMzY0AoAzWzatyyxDV202erwFSLSHFcQeS9IMd7SM1np3E+jJOJe25hYwi80qICGFZw0fnyIvI986oo2oA54NKysxAkhyncwpiAGjPUesj8iwhzGV8yFdFO4WO60FiJIdydiYdWa2RzBa8nwUIHmUNUJtxNnImJbkriRjBqwt++9ljteOaflGtM1b6NwbP5pZjtaB5dOA5AGRVfR1q40UeQlIyPjRenvrLYCkQaNS/bLeuUoj11Kc98nkr45bW/7e/bJgtA5NZ1XtXl2OeX61QO5BV5K5ghWIzBdu3Lhx6rY/n+0gkzVz8M4edKuGrr3GuKjiWMxIV6M1ZNx6j720uHsvbj1+mglIKAuO5M/ypEd3ORcGpOx8yEPKGSg6SvlsHelIrf/oypDJstV1lEHNlg9lsrPlmLn+COBwWyH6NMaPbi7JO3eZf62iPDP2T7VsERVfCyFnOhxd2wIizYxmOgWVUwbLLHmygJ21r7bB3QBIHiPvsbE8o+oFJCYXiDwtZ2+0/imGJNs1veCxAFLv3QPWM6PQiFMqwIKM3bJ1agWmEQx5JnM41S6ox1OsA/E1/D5aXx3T1TNAOR890mkBpAWQ5RmSpHK8oPVVvUjybDUmOsfKZIqYkXV2tEZwegljFYiZ8nhJEhWqUaxmdIJacZABruX/LJ5ar2fFsLruCPvJNabGmQdIrPRCoxq/77tquFHjR4ASyghnOsdrWzx/zJAls4MliwXsaGWNzkDktdG6IoA0ck8EyDW7HLk/2dJigKNysHWdM88hSaXZIKMqXauQLfN6WjckONesmJolSQot3w84OmCtMyoZxIiddOK1yrhGDO5lj94WC2GArX5obcXQHE7fOsItGyNqqyKoQC3j7r///sP777+//L948eLyk/7xmxLpOjmZ/iZ9+CeNqySVxViq/XiLfta+s1s2xC4cE5FOo5J8LZYu7TqSQehOQ9suS/Q95p0ulCMYbAhIVru2N8OQPAQw99133/KfQIb+ZhC6c+fOAlK3b99eXqOfly5dWn7SeOQTB7K2BEnMEUAk22hmL7MAcRQgzdB7bXuP0MFjPZppe3bfW95lRbJVXheQtAFlELRuNsKxeg3+Zk75OgEQy0ugw2zp1q1bCzgRSDFAoTLpfp4BYURVQGXwAGm0P/QZULT+6L1RttW7ry4yGUOp+shKWG+N6HihV89euZH5SIvpMdwzutMnRkbGkwk/qxojSkfOZGWZFRHwEAt6+umnlxbt85///OGll146vPnmm4fXX3/9hEm1VFp9xiaBia5Z13v08+ZGh6Kt+2kg0utYybFmwoxq/3QxWcNvFeazVnvaGifWvKibsnT3sMRkSBY72itD4vMgko/AhxgRAdNTTz11eOaZZw6PP/744VOf+tThn//85+Hf//734Re/+MXhjTfeODlfkmdkiIMywMmuI3usPcbz93kFJIsBytYdbVcrfqoAkmTCawJ+RR8ey+dsEpA8gJddRhMg6erfwihalKzMkclE50fEjAiAnn322cMnPvGJw2OPPbacKxHwvP3224d//OMfCygRQPEZUiUAM8DJrld0W2ssB1PGQLZmSKPsYbUYMokq8VCVybLxDLZblat1vAQkxgsJNhkQl1s2RjUvGGc6DzES7c8H18SMrl27dnjiiScOX/va15afdP2BBx44UBtH46hl++lPf7oA0nvvvXdylw3V4xgBJ7KjTE4PkPbYqiOxEbW7ui1iQELjoHd/b/7eGVFkU9QmkY7pobakZhaFX8OBmaIsA7GjT3/60wsQfelLX1qA6MqVKwtDIrB69913l3btT3/60+E3v/nNSdsmmWC2F3L4Kalptp6k55atM9aCrp8FknUGIBnxMSQK4hv2tQVIvbZE50c5U7EzsxN035njUBzI9EufQ9KO00q1JN9ow5AMBDhXr15dwOjRRx89fO5znzs8/PDDh8uXLy+gdPPmzcNbb721HGwTGP39739f7rShhkRllvS7EjCeHSWDmcFUsnYteywiiw/UbmuO0zb12JH2ZaVwZQXAKu5r2mDWXjoerLvgTQxJV+4M2azqVEnIVgPRHnQWRGB0/fr1hRXR73SgzS0cjaF2jRjSyy+/vPwnMKJ/WcJJubJ+uFUHOU/bUTIXFJAqRcJq2eQ+md9H6LzFGhmQzmSmM9eu5u1o22u7VnVd3jpiBR260JlDKfGZKyMqSmYwvrP2yCOPLMBEzxkREBE4ETOiFo50+ctf/nL417/+dXj11VcXtsSytQCSZZtRidsKSBaTki1XZEc5V84ZpVPmwz1e91rYvTGbjOFv4UNZEDPgP9Nx8Wdqe8BiBYscG81bgyFxu0btGYETMSQCJtqbzpTYIH/+85+Xg20GIgIluo4Ckk5abWh0nSj5pC11QvA8L8C8BEIDEi1AewSPikwa8L1zJ9nKcks3G4w8WZBigtgAjQVkLXRMMyDJgJeLeAtaoGQFdYbgVktUMRyxIX4am+6w0T8CHjo7+s9//nPyvjZu0eR72SogrKkwBywH6whAOlMtjM/n0aAl5WJbo61dtF/FB2hwbj0u00nHfZRM3lpRwciKu44xFIiiHNPyZDYY6SNLrmx/81tHLJDQFTozfLYxknyocQiUaD9q18gI/D41BiG6RmMIqPgNt8SkiCXpz3tiBhUxEt0eeRUUld8LfEl9LXm8wkFjq/ZHZR09bk1mltlEy1Kt7tH6HmhYc7IiLuMvigHylfVpEJkdRvi4ou8pvOGWrWp8ROiK4hWUl3vTHnyORIBDwEN/v/POO8sZEl1nYOI34NI4/fXeDES6NbMcqgGpFwBkuxWxm4jRzfAf4uPeMS1VtGfPLCYzMMj2rgBMVtStvXR8en/zXP7kCxmjmQ0yHZHrsoPQ+RoyPwuQPOGrzqoorg2LUmJmETyf30rC8/mTABhY+JkkqaNVcfg1Zj9RoEWyIjaTgMRyWWvK16x1LUaFBE/PGJYJ0TNKsErQjpCX12CbkR7aD1omqxBpWaKigeiY2VHKqNmRNZc7gqMFJHYMKeB9XlBmtBbGoAEpcl4F6FBZIlAipzKgIbqjCWPtqdu/qq7o3ug4CXIyNnh+DyBpW87QlVtyzTxb2AliM20PjwFWgUvHimYgGpykf2RM6X1H2NwCdQ3eOq49W56cIVkUK/oAsygxW5W0QEk6WK6L7oGOs8CBjSarDL02CpS8PT3nobogibOHMdKOo3XTsaQBiQvVKF9KANB7W3pqH2dyRLEi2Z7lVxSMR8UEH4d4oBjtc/KkNi/CVZB+IneOequcrLoeIKFVJnJGZmxrb4n8HEAM3L0BrSuaXJfX3iMwRSDi+YlBfDToWD71mMIWLYtVvCxwyMCI1+EYkXGZxfUWekssyWJZy38GkOQAeSCGKN4yRrcBVmXzklW3DSgg6aTSAaGvyyDSslR19oKPXpeVxer95V5rJPeZYDEeQ5BjPEDqYUI819PXih/PxqjN0HFhpf/IVp7uLXtwjMgkR+OvZT90bTmOYlgCEhdVtFU8ASRWVjp4DUDygj4DCYn8+ncvcZFK5DlBGrRlnWwOA50882CGGiVjS9C0ztE6aLlGAlLEtrR/dRFD5kZAV0leDYgIQFfsL9lQhSFlQF6RAR3LGCJjuAmQaJKszqzMngEJRVwelwECavSWcejeVgUcCUYjgrSF7VTnRPaKwELOy3SNwHUUILXEilegvTjOikJFl1Z5ZUGQOCLBCM3XhSExILFAvAFyhtSqBEJ3aUxU7bg6RUaPKtgM2a01kYrNuurkHRVQXF1b6P4IO1VAaQQgscxewrI95HX+fZTNR9qtlaGvoYtkbtquHkPyupoTQJIL8e9bAZIEIqasXhs2wumz10ABSeo9MpAkGMlERfaQLYNXIBD7rQlImV4ygWRirAlIGYPT5MBN4ORcD/FNzxgNRlaeena1/JS+dSRzbo8yKEvyqt2svc/Tujr5WLfsfIrBh8ahLSfqTySmZBugg9wMZJWYXgJbTFQWPa7oM2NAF4gICHts77EquV/r+qyD/Ex6bUftA8jv1reOzHIGWhXQ6lCVs7p/df3e8WiiVfbRia0ZDxIklf0QUEL39JIFaV+iPSQg6D30M2ejdJcxbbFFT94KYGQ6jyzsJJd17swgxLJUu6z0EyNHOaTStozaU66z9f6IThkgVdqeTHdPHhQsEH04OC2207KPbt+jZOX1dRHSssg3V/MT+RE4yGv0ewUwNDMi+0QJK9fOiqlmWdZczTRRH+pxknV7vo3OjsKitRZDks5Ys1e32NbIStHqVC2XDnRL7lGgqteRwd4CFKgNRskf+RSVhcbpKk+6051lbQMtd6uNZCLrhNUAyvLJnxGgWK2mBRYtoCRlk2t667eC0aLrbEDiKjLKqZWAG12hq3tb4y0w8MAoYzk9ieEltRXYYUUTZzeZPJohVPeyKnWvT/RtamZJo5JZ+1CDvwd+1v6aJenCHjFsj8llPuMcsgDSIhlyfItvVgMkqZA0ZIXytii4pzmWrhkVz+RHAioCRqtQVNbMCg1dtyosB260l5zr6SD3t4AdiS9OLJovz5A0gHqAkPnIKixelxABUQ8goUxLy6pztaWgIj44IQ+zGVLkLIumVpx7bGM9QMoAwJrX2/ZmdDuzLVpxNajI5Pf09kCGZfJYd1SdEeD05mtb9dpe2lbaIGJlmo2gMugci2IJ8akExaxgZDGkQXLx61aA5FFVRInKmBFGq+yXjUWrBa8jx0td0IDM5NFfJY4rj7+8AAAgAElEQVS2UUjwcsDxmlZSeSAtwUfrIAEpA/NMf7QoZoCW7eNdzwDJA1/UT3p9JP4sXaWdNBNF1vT018UnBKRZyYxUxlYH63lWhY4q6ah9LTkqa2sgsqqqF5RVv3lvhowCTX/iJssiZeJkQvRGAQ5Za+aYWcBkyaz30n5l+7aAcgYikT9a9kN9cvJg5MxNZLWPKntmJFSpPY6r6mYFo2QNERhVAddrByI78hzkjZSIP1oByWIYyH6tY9YEJIsla+boFdwoBpBY3ByQqkFcdaimZkjLVqmwVXnWHo8EgZQpGp+BUYsvtX8y+zAg8TxdaKoFztIXWcMaU7V1BrwI6CGyZjbN5LBYMgOSbO3kax5TR/ytWbr08Qx9Fx34M7VbgrhiYMsAUX/LSTcquGQPXJF71NiqHhlj8ABdAkRL0GiA8fTncV5gV/duZR57AaTZ+UPrI76x7Bixbc24LH9z8ZkJSCf5aX1RZGu16kleGeAeA6hUEKuabMm4MkDyqnAG5JLWZywU8Q9SOfWeFihsBUiZnREb9MZZ7x4II5NAwoChX/PYkSdf5LPeQpfZBAYkpn+zK0BrhZSVI2IV1QTJDFi9njGejFrrlggZ36IzUoXl3qOK16h1qn5Bx0uGXfUluofFVjKAla1a5pdIDi9WdBFviSlU/1MtG9ICrAVKFaWt1kGCKP/ewrpQQ2bjoqDydNWMEbF9D6hnOsy+Lqu8tEklFmbJGDGWCqOcJR8XZbYhQiIiAEKAKwPKVl0v3LhxY/mANi/g6csVR/WO1eqLKKUByau0ewIkWW0zmowEl8WWWhLZK0qIH3rHWG0HAsK9+yLzI7vMiGlEJh4j44M/z5p+crxbb95tbbE1MMu9KzJHY9Pb/hUqvaVzZHXQhpJghCSqpqnDjP3R+74QGWTAyf0rc0fJvcY6GpAkGFmAwD6dValZZ1k8euxg5cbIOKP1iTzQNzfT7/yevFFfFBmxxB67nCmm1qG2VXGrm26ROBKUdBJHLLCqW+v4LQG7Vea15lmAxKC0RSyN1HuNVpr24K+Ul4BULcaR3qPAOWRIyFtHrCqEnItsEUitgT2Dfo4M6mNfK0vKyG9R6ybX3SLewuQyPsVSM69ev1otGwMSg9He7NINSLSAFTBeMKzNRqze1kqA7LwmCvzewLnb5yOAxHFmtaiV862tE7DSRvbKKgFJ5qhkRj2xtzarT99cS4pZ71uylJTG7TU0akQJfl7LhlSltQ2P6ndexmWAZIGRBUz8GsLQt7LdVoAkbTgq/yxdRq1t+ScFJI8deULNFDYCQT4g9Kh/xn7utWxz0xcBJCmBl9ToOcbacYgAJWLhreT2ZNstIEXVCjH0rDEWlV/biLN0u7fuhxaoMA6EDc+2a0VevkUvC2YFlFCAbtU5Kwyt67oAGB1qc7smnazPa0YLVF3PkqcXkJhtVWW5N36OBdifFRZbSeo5UmNAKj+PSp77oPLz11R5wDGite3Np4p9l5bNOz+p0uzKxqPGVg47K3t6lUeD1d0OXmsVqIx1oAmsYyADuVn+leed8vOo+Pmh7Ighi+XR9lqLKZ08GIk4JjPCebnekmSZ/c6LbbQeLbZqscWshJDralAbWexk0ZeMjx5mlIBE33rCDzO2gmzU5mryge6xFktKv7m2F6lbgm/rOV6SWcErD9El5Z6pQ5REM/e11p59hsF7tgASUiS8RPMSNWMeqP05bujJaguQWr+wMpNPx87agJTF7sldtmwgaujzMM6rjFYL2/qZ1C12WqtKtci21hwEZCqybA1I/P4z1ouBqAeQIhsdJSDdjawIaUWs4LVACq06vYmzNz+NBouKfVrHVgApYx+WDB6rlm2V95nm1TjSbD2zSWX93mIoz+JCwJR32Sz0lK/p/jNT+Lxd9wJS2qXi5Ip9ZLBJIJq1X0U2fWaxF5lYrkweq6hIG7cAkdVq6qMAXtfKO27/0b31Wt55WGvR8GyExgl6c+DCc889t3z2iKWQRjW5eeZkVNBjHOdVvVk28QK3wpB6A+oY/BQl7yzfZHbRRVyeuVlFRsoJJ/FH75nzCIOnO7q+LjiVuGP7IHst9mCG5AGShfQtAmWOO7brbC9+DmSm/DpwWxjS3QJIkZ5bgJJVvEbnlMeeR+epZlcIyESAZBGeU4DEijFdtO42Za/NTMyt1rao9prBzX6RAcH7o3J47MGaXwEvDiqvOsvqKtkBvT4SzHVBtZgJaquRcZbZ3bpekVPfVGkpViP0bW0FOT5O/CcfjJRIa4GSFLwStCMU3nIN2c9HbcEsGSUgccB5ZwSeDFFi6GCq+NYCST3fW7+SeJFtJRhpYOJPTKwC+ChfVuOlahPrLu9oZoTYohWQzhQS2bJZ9NKrYhq8tjACYqgRYyxWOGJddA0LkCQVRmyfAZJco1K1ORD12YhF1TVDqiZfBrbaTszCtmINUQHna1Yio3aROahjAF0DjUFvHMKQpa7WOqcKSnSXzQtSjWp7cHivYaP5ewGkKCgyUEIASQeO1BsJcAkIzCppTd57JkuxWJIXl4guo+PJYo16D0+uqK3Wts3iYLReGpCi/b0YlK+7Hz+ijXBqEp2Gi5N9HWhbOHy0ofe2nuVMi9F6tm8BJKTQnKHczueGy8SRYDXSzmh7tEV86vzJiot1XTNMBvtq4Rhpc1nENFvW+0T+OYkj+kxty0ERK/BaiJkVcIYRj2lNXQkjlupVKQvAJIOxqHXmUz7DkJVSFyuZSAxG2bpV36BgtDaDsGxq2VzL5fmK7RwBVtV2veO17atFUe6/MCQPfCzlLWp8jyH1urRtvj5D4FWqDCRqJyLg4P05TvhbL+gnV8s7d+4c6A2jMsasb8Jos8DpWXsHJQ+IPN01KEVdyxasLypgKDs6oxM9GJmxIa+K6qo9uuqNCNLzvIbFkrjSMihFSWr1/9rXGSCxfQmELl++fLhy5cryVTw0j4Dn3XffXQCJgEnKZn1fWIuvdBuDgtKWCYzoGR2JnGIUDV+thexfHcMFCAFXOcYEJGRzXY0tx1vBG1FMZN+RYzSAjlzbS+TMQb2JkSWgTtioylqy6mKl/6b9qW27ePHi4dq1a4eHH354+Z2Z0RtvvHG4devW8p9BSH7mTyY/4iNvDU6SjGkge2w1xmvdWB75iZP8Wm9MebrqWKrYxPPREEDKFp9lkBYDrCEL2kNX5EfHZgmd6d8zn4sUsSMGpOvXrx8uXbq0sKLbt28f3nzzzcPNmzeX/9y6MTBlVXWUDWQxZeaY2QXde/a4rIhmDHikfFEnxeyX97PkynBjKep82z9ykG4NsoW3cvaazokMr50zMiiitazgjSps5sdMbk50atEIkK5evXp45JFHlraNAem11147YUjEmvj8iJnViNYtA1WWkwGQ28lMv2O5rvNTxt/IXLTYtbd+BZCkndPb/nJhS3FNEyMDZAhbCQAkCDUwjHTOHgHJsl/E3iwbVmzE8wmMiCURED344IPLTwIaYkivv/760r7Jw23JkCo+98YisaCBeQQQjpB9xBqSAcp8rPgSkaOynvZJ5qOFHfGba6MqqgVFWUh2dsECIIaoyHAKbS9cOHV3p2LQqlyIwTV4V/eIxkdnQygoVe3D6/KnHtJ5Bh1s86E2sSQ+O+KPZm394LFWMLLiTOpZ1Xmkz0asJUkCM0AuxDN0Q9dsBiR6DskyTLZxFOQeE7LWRBMZHYc4OdMNWaMnQTRz69kPnVspOtU1+TY/zePPiGYb85mNBCTJLkf4oic2RuyP2mvGOK9dW0uvkS3bwpBaAanHuC2tm0dLM9bhBesaDrPaXQlGo2Xg/SLgH7knV2QCIf4n3+zJ12nPER9cH8Uconul8Ebr9cT+jLkalGQxmLGfXDOLJy//3Ne3ACSZlFl1I4UZjPinNrg2igY8y2GZIUc50qtgo1iSto+k63xN6+K9XtWZAUfeepYg5CVKVkSqciDjK4VpBptEZOwZU9GvZx8rlirrZfluMqS1kpWTJxVSfSKeDGhE1i0rCMm6xv76YyhGHNoyuCDMxBtjMQ3EZ5UgR8dacdYri16zdz1UFz1uK0BCiotlI5ch3bhx49QZ0ky610ODmR1pA6ABsHXgzN5f2ofPbarBvUbCjmKGqG6aDfbEoLXnbL+iesrCV2mpKutHYytnSWGBWwuQehFcsowW0NxD4IxOBunYXv16/ZMxJCRJZrRKHCsZC5dAiYydZa9egIhkR4t3qwwtZ8NnmN53vvOdhSHJqjpD8F4H7jXhWp23t3m9/kEASbaAsqjolnYki5oBSFsmPRI3e5cvZEgvvPDC8uZa+Z8nyABCDIGMaQWW1nlSFy1fBLwz2Qxip7XGyJZmJihZ7IdjbiYgjbRjxpxmFPJW+Wf5skUebZfIjheIIVlgxD3pXozcC0hVQ55HQEIKzIxApjX5v2TjUaCuFXeRTTIAQtrQatyNHj+jDa7KWAIkPkNqOZepCtYzfgYgMTuwet9jAyTPPi0AI+dIO7SCBApIPfHROrcXkFpt0irvMc5Dz5aWOLGeQ9qjkVsByUpIqZ+lq67mew+CCHR6AElXV89WbB/rOoM+f110xJC2sHMrIO0xR7awH7JnCZDk1yBxsIymeZWDxUzBCjBlenAwegzJup7JN/O6lEeCZsueXkLpdeWeWWBlZ3Ij2FaLrj1z5Ef0RsDbs8e9uR9aYIk9DUjaOKMqgT48bV23AkisJAOt5Xivv83AbIsgkgldOd9A9Ja2smwsW3oLDFEwkgxpCxtW98wYdmU96b/KPCSOq+vtcfwpQGo1VguwtO51gqLiYzuz/SNKHrUgewMkDQLW+VclyLJWVbMBD5A0+0UBPvObpUtP3FRsI8eOioNqIeVYZz9r3Vvs12qDteaZgFSlpS2GiUAiquaclDpIWmRAK3rL2jMcKHWX4JD5q1LhI+ajAclLWvm6ZMW9zFvKRuvO8IuOy0j+io/ZByioSJ9Zc2fpX9FpxthVGVKLc61qazGFqCXzDJcBkqxQM4xfXVPqzYnjAZMV0BlwafapgUXaWLMi2VJE+7QmvAeUM0BJy28Beo/v5Pqe/HJP66uyGZBacsoqDCN0rNrEY8DpGVJLQnssB1E8AwoPkKqglAWzJ6uucqMofeRQDTD8t3wDra6aurIi9rFsa4GIXCvz6YikWRuQZGxk+mWJGPnBa5vlmhKQJBCxD3rlG+GfzAbo9ROGZLEBS9EsidGNe0CO5LKqBpJwHlBWwCDTcYaNdMWUd36yzxmqAKZMnkiPio5I0mU21extRstS0akCAt7YrPBKm8giWJETsasEpEqsIGtXx5wCpErVq26EjEcNzdVSO9pqX0bsq9mJXlMziFZgRECRwZif6SEwkl/CaLW4cl19XVdHy6Zo8nnAY30MCrqmlZT8GhovSAywz6xW1JuP6uDFKSJXFFvo/sg+PKZH1so+kU3dD/kfsUFlDQkonrEt+iuN2QpKXpDTepqNyfbBSgr52gg6rAGRPp2RP6FRfq2Q/DYPWVFlUGetSBSQlQSI/FBZpxI/I8ZWQC7SQ8Yp238Gqxuhs1VgZ4F+Ju8ZhpRNmHm9hdrrZO0BJK8a6U9DjGxQCWjUlhIAaQ7Jw4DEICS/eJHGIOzRSij5Wsa2KnbIgBC1xVrjED+igKTZ11o6tO4TxUDrmpV5u2NIVkJFClmBgQSUXDN6W4NeX7IPuQayZ9QSIAHOtmFA4qorz5G8dTRYZyy0pUBU7VEJ1FljPRaL+DMCdZ3YyHqzdKys68W3t8ZoANsNIEXUkauMRSU1g9BjM2cQGElAksmtK7vVrqGsLGIcmulpPfV1loMBSf7MACmzRxSQKGjqtjXbUxahvSVuJA8CSGh8IDba05jeOHMBjr+5du/KekGuAaka0AxI3JrRfH3nSp8JSBqO7ocAUsT2IqaGsB9UzqxCZq2eVTRaYwuVuXX9StVHW9gRjH20PtF6HkPMZNgFII2mZ5bSqKKy/emRi+ZaLZvFtHppuNeyScBDE1oDh5e8CMBUEx8BJa0rzakyp6pcWRKh12WRa/myBG2frfRA9e0Z15N7Zv6jDGkN5G/do9commVJBoQCpGw7qm2jnqsdpVtHeb032DVQoMEZtW8SVD3bWsDbIstowNXy3g2A5OVPiz/Q+Olu2SqJ2SpUKyDJhO5NUJ3sSOJ5gFKRxauqUVCMCJieNSoxkQGHFTNIO5Gxkey63NcCz7sNkLiYtvirNe9P+aCHIWVMAAkoTmYrcNCE7mVIQwz50ce0ysqPys9zegC5qgOyF+q/6t4jxiPyVwBzhEwR063Gwih50HVm2SoqeFZ8wXfZEIFHVtuqA7dCdAkmWoZWHaKWDQ2waJz0pfZZVeYR8vSsEfk9Yrcz9Fx7vx676blIfrfsF/lnCiB5Qs5wOJJka+/rAVKLHFl72LKmF3heK2PdTRqxb0swI3OyltbTn3QardespEbs0DtmpOzRWhlxgBlSREf1terdlF5j7mF+5azCk3ctQOJ9ZHB4CbqHdniUf0kXrfPIta21RoPeKHlnraNj2CsYnl1KgCTZgFQo6+e3csqaZyCtiStlXBOQtLwWIGV+nRXUEWD3xNJsQLJioEfete3bu18Wv3L9oYBkgVEWvHeDYzI6irSc0ZgRNpRJqeVF1kfG9Aa2NX8EA5VMfrQe0q4s/4y2cIZtR625C0CSTs6CZnQQaMStGGSUE0asI+W2KO5Iu+l2TSaPVcFamd8Iu0QsfKRNRsh6twOSl3vST0gspS0bWvU9hyA0bURArNmejZDXan8tW89IPAlK0XkfXbO+Bmik/uhaGQNH12F9RxYvzTp5j7uJIU0BJAvNMtbjnSvpAJmRWGgQ7nlcVFmPFWRn2BuNwxl7Z2uyD/knA9FsQOL4QJhHpsOI6y1FQ8f4GYakK4hVTS1wySqOBrt7APVhCNztVH9EImy9hgQkkkUCUqtsVutuFXkdP1vlFcKQIluc4Iz1pLZELUvhKiB5faQn4FZGbQ0eiyWiOugzHUn3e+W5N38dC/QCkiQBlQK1J4Yk5Y6OASyPyByAzpAkFZUVQC6O0rWMSfH664TSuF1Q/fWOrfPGSX5vpV4LWEUFLUgy3mkd+ckTLBetFb2nDmnZZre8KHHx4j9kSHISH2ryBE1HNZuScxEmZR0yVpzZG0wWqLbsPwNYKmdISFCOtNW9tf5ngVG+twAJOY+KwCYjAC2x7rEciREosdBg7jKkMwM/+jwbfVCn6aYlrAU6lsBaoTWDfkQF2RIURsi/pr233GuWn2jdngQ/dkDKyIh1tHGGMXnv9kd7WQSQ9KbynEQGxx4ASQZVT3CtmXBeha4wrDXl3WqvUUxmlvwy57yOxNvbKkgZO9KkwCMOo/SN5DnZWwKSdbimE1QyJLpGva1lyEgJzbI0G0Pp3ihD0TpSh+qh3Eg5Wta6B0iY1fYOSByH8qfOFc1CrNzBrPHhKCvWESCr7CH18eaZgKQplaa2UaJaTMfanA2slWZAkOxpRIVHaLR2qpShavgtxkeJNrvqbaFvy55eku2RBWctZXTd09PLA53TM8AoAiRtf+gMyULpMwtduHASJwg1k0FlAcKoQLEcoV87ZkA6ZtlbgKV1zjEBkmZImiholmTlEjonYkhss5G5qP0HAxIbRU+Qf0donFGziI0xlRxliMhh1rVjYUiyzfQcbbHMGXZtBYq15m3VrmWMw/JFNicCJM1GsrUk2ZCxsra9Tgor+hG2bASkBUAYktWyWYYemTwem/Bay7WSBa1mEavMKk/1uqX76Iq5hX1HxhMiPwIIeh05J2vfMkBDcpEJgI4vq7uYYb9T+kaARAP50HoEIGVgZgV8ZgDU4Fw5tIO1TNl+SBC2jKm0Xl7Aah9FcrToeeyA1OKX3jlbAJJkSXp/z+/WEUxLPlbtdYaYRLf9LeRENszoXuakjJJGFSWSz3JOS2IiNqiM0WAkgSWrgJpdIfogYyryn4exGRNp1TGLddS/3v6ZL5FczM6Do2Ob0XZJD7VHgZI+e8rYUqXaRxUhc2Tm0FaDV+d5gTs7YKtyzhyPxsRIGSp2H7kvspbVMiHzkDGRrVtAFNlTF0+LeECA1AJKKFXsVV4fxJ2hgM7Ts/Iwr2LM0WO9g8QIKDOboQxT7j1ar+p6UZVuYYHo/pVWGV1z7+MqtrZ0qRRxTUQkeegCpCpj8TbW4CarAApilpGycxUtf8WoawRYRfdZ7cUaeiJ7aGZAf49ut702meOT42NPoI3YTo9hW1r6WMXb26M1Xyz7RfELM6RRgJQpZh2koY6IgkwDYSYHuuda4yTFvlsBScdGD8u1YkUm7Vp+XWufNVmRZj4VRl8GJJ3YnkGRim/1yPK1luqkmZIFPMcKRhHrXCuwZ++jwVYChxXYLV91LXWgT7NgYMvioqdYzrZby/ooULQcH2S2dHEjew6pWo09JT2EjgTvBaTe/rfFyTPmINVtxr5brSkTfyYgyX0sthW1NK0Jt7ZNJbNuKWiZnmi+o3qnH9AGLyTeOqLnWEqNViQydmZUVMeecVVg17RX/o1WNs1mK/N6dK3O1Unj6Rq1WShz92SL2r9s36q+a463Wv0oDlo6Cq8baiIUzz///AcIgGRG7AGYnmRluXr2z3TrvY60r9keUdJGc1uCIpNlxvVIzoipRMCN6K4TMCqeI+J0hu1Q/1vAWsn9amFH7K/3v3Djxo1TgNR6sGcBQkUB6zyp4rxjAqSWal4FpPNw3uEFtD4n5DiR8VaJPSvOsland/1KbI8cG4FSplN2fYScZwBJJktFgBYW4AVcE7IaLWNF/hHG9NboBWvpE6TtOqZKHhWiLA7WLEIjfDgzxiprky5Rvsq84UN/C/Qre6JjL1DL5hl7LwmdKbPnYFkzaaL21fOlZlIMEDSegpHuYnFQ0u/33XffcldK/k770uvvv//+KVfx3Mx/Pddn+34L/7XYwwKYDNDlPl5hGK1/ViwXQCLBrIHHAEizA7IlOLSjo5agd32UlUW+lN9OS/YkILEA6f777z/cuXPn8MADDyw/6T/NpZ/M4ngt+pvHz9JRx+2MKj46IWfZoqVDiWSpHhEgeiG5utxlQwYiG84YIxPJOzuYEYi9ukSt1VpAj54jyWdx5Bz6nZjPzZs3D5cvX16KFv0kJnT16tXDW2+9tQAX/c3zbt++fcKi6PeLFy/2mhKeH7V/8CLGwNHJ3iMLWoC4QLTslcVnFNvRfjxP+knvdeq2PxrALUq2zrEA6Riq1h4ACbU5t2ZM8XXgECjRGPr5yU9+cgGlr371qwcCnBdffPHw2muvLb/TP16L/r5y5cqZNg6V6W4ZNwrskGRHbDoDjCwi4d2AGPYcEqJsy5h7gNRiNXwOBYtu0/Rsar2IET3++OOHp59++vDss88ucwig3nnnncOPf/zjBZRu3bq1vEYtXGsVxSU/HyNHdSfeOl6HgbRrGRtDGakES6ubOSVj9qT21m5HW7YM2dfW41gYkj74lEHGLRqB0WOPPXZ46qmnDl/4whcWhkSvEQui+X/7298OP/rRjw7vvffeybkSH3wfCzCNYirVOJsFSJwPLYCEtHsVv3LRy8CIrpcZUuXkvuqce+PXt4A+vGRAotbr0qVLh4cffvjw4IMPLgfZBEbEkPjrnhl0iBG98sorh5/97GdLiybvwvW+12wti+wFkFoLq5TfAqMl2YN3U1QYU3WdaYA04+S9N+Aime6BZ25dj3YTC7p27dpyKP3oo48erl+/fvjMZz6znCERIEmGRO3aq6++evj1r3+9AJK861YN3lziOSO2AqQMCCr247EjAcmLD71XpMc0QJoTCn2rehVFO7I34Hrn92k5d7Y8zKbfCXCIERHo0O8PPfTQ8p/aNvr/5JNPLrf0if28/vrry104atnoH/2+xb9e/3iJrxMSYTDeWsjcVtt5+p+5i9XIknrk8mSj15lBnxCLvZ8hIYawHI0CklcBZL/La1WqAiL33sawLegnMST6TwyJ7pbRfwKlRx55ZGFM1M6R3Ykd/fa3vz0BIjpX4jttazwYyTYcAUgWw7DAJQOWPQCSPgea1d1kOSFzR+aavst2tICEVAIrIDLqq9s7+rv1QHBvQIPIIwOLfqe7ZfSfzo/4qWxiTcSQ6FyJH3r83e9+d3K4zQ9UUttG17PEReRCx/QAErcUnDDS91HccMwgBVEDhKVXltyZLTIgnHGEkdld2lbqJ218Ks+OiSFlBmene+MyUJIOZ4NJJ1bmZ8Gzt+uaKbKu/NAksx4CKfl2EmrRCKjoJ799hMYSKMmntmfrmyVGdsYhn1ZHAUmvGQFTBs498lss0WJ7swHJ059BSdqYi5fsROj38l222YHlrS8dJn/3DvCiCoTocDcBkmQGS1B8dM4gWy4+M6Jr/DQ2MykCIwlc9Dq/rQSx9YgxPQlNc48VkJBuQLP9EfbWIOgBrmZIHGsSkI6OIXlgpNE1q0Iy2TLKbDnxPDMk2VJItkS/8618Slo6U2LbUFDRfzpfIpCicXSdwUizrpGJoNfqBSROHFmILObh6YDEXqa/ZjXZeB3PUQcxQj5EniivLBufYebH0rKxsUcY3asqMiDIgfoZmvMOSBKUZGAxe2Bw4mv0Ov2nJ7TpGoORfOf/WjbrASRObA0I2RnilkmuwVLnh5TNknNt2aO8lbF2dC3bCEDKnEnXmVJmQdlaNfY6jxmCrGb0Ox9s809+Qy2Nl2/OZb34rGktPUcAkpY18v3aCe3Zkf2k2ZIFSBHgzvATsx8vZzmuuBAuuhwLQ/JApBX9pZGkU9k4M/vuGc6fvaa0lzy3W4sBZfr1ApLXnrGus9fP9DvFIj464/NiGDlX9cZoPRk0eg/EEYZ0lICkK4HlSLR6RQ69B0gfWtYKJNS+lSTby9hRwBMxGnmtaksdsxmQenJYgGT5mlkOr1OV1yMScr2jO9S2jIpUZk25vcqu+2/PWJkcx0Dx0cSXNsnOIxURpDwAAAE/SURBVNA1j2HcMQESWpw9nTS4WJ2C3kPeHUNyUAKSlWf6rPboWja08kSVwQIOD5SyN4fKzxzOzptaq8vaiRwF2rHosLbNonjzYovmVOzpMRhkHd1yW/vSGL5RwfrwxxIjbWBWsD1Akt3IuQEkj7pKhGfFPeCwDJYBEs/xHNxDz7dKqqzy7fEMaStbZfvKs5ee9jfzCQqI0dkR7cFP6NNP+pueMePHO1rbNq/NtDqRcwdImmLq1kODEmKsKOh0j63HRoCVBfNW16NKzNW4Utm30mNv+24FSFZrp4syy0ZARI9v0IOwxJboM66IJfGzaBpEMqC0AFnPkUV/OiBtkZBSYfkMjQQj/t0DpPOQcBlYZkArr2vKj7QJewOELeXxEheNM11YM12ydWVeys+3ot8JjOi/ZkgtbZsEJK+LkbL+P1VjTPigbHjXAAAAAElFTkSuQmCC;" vertex="1" parent="1">
          <mxGeometry x="123.47999999999999" y="20" width="79.69" height="60.04" as="geometry" />
        </mxCell>
      </root>
    </mxGraphModel>
  </diagram>
</mxfile>
